<?xml version="1.0" encoding="UTF-8"?>
<svg version="1.1" xmlns="http://www.w3.org/2000/svg" width="300" height="300">
<path d="M0 0 C99 0 198 0 300 0 C300 99 300 198 300 300 C201 300 102 300 0 300 C0 201 0 102 0 0 Z " fill="#FEFEFE" transform="translate(0,0)"/>
<path d="M0 0 C6.27 0 12.54 0 19 0 C19 2.97 19 5.94 19 9 C21.97 9 24.94 9 28 9 C28 6.03 28 3.06 28 0 C30.97 0 33.94 0 37 0 C37 2.97 37 5.94 37 9 C39.97 9 42.94 9 46 9 C46 11.97 46 14.94 46 18 C48.97 18 51.94 18 55 18 C55 23.94 55 29.88 55 36 C57.97 36 60.94 36 64 36 C64 33.03 64 30.06 64 27 C66.97 27 69.94 27 73 27 C73 29.97 73 32.94 73 36 C75.97 36 78.94 36 82 36 C82 33.03 82 30.06 82 27 C84.97 27 87.94 27 91 27 C91 24.03 91 21.06 91 18 C85.06 18 79.12 18 73 18 C73 12.06 73 6.12 73 0 C75.97 0 78.94 0 82 0 C82 2.97 82 5.94 82 9 C84.97 9 87.94 9 91 9 C91 6.03 91 3.06 91 0 C100.24 0 109.48 0 119 0 C119 5.94 119 11.88 119 18 C116.03 18 113.06 18 110 18 C110 15.03 110 12.06 110 9 C106.7 9 103.4 9 100 9 C100 14.94 100 20.88 100 27 C106.27 27 112.54 27 119 27 C119 29.97 119 32.94 119 36 C116.03 36 113.06 36 110 36 C110 38.97 110 41.94 110 45 C112.97 45 115.94 45 119 45 C119 50.94 119 56.88 119 63 C116.03 63 113.06 63 110 63 C110 60.03 110 57.06 110 54 C106.7 54 103.4 54 100 54 C100 56.97 100 59.94 100 63 C97.03 63 94.06 63 91 63 C91 65.97 91 68.94 91 72 C93.97 72 96.94 72 100 72 C100 75.3 100 78.6 100 82 C103.3 82 106.6 82 110 82 C110 84.97 110 87.94 110 91 C103.73 91 97.46 91 91 91 C91 93.97 91 96.94 91 100 C93.97 100 96.94 100 100 100 C100 105.94 100 111.88 100 118 C103.3 118 106.6 118 110 118 C110 120.97 110 123.94 110 127 C115.94 127 121.88 127 128 127 C128 129.97 128 132.94 128 136 C130.97 136 133.94 136 137 136 C137 133.03 137 130.06 137 127 C139.97 127 142.94 127 146 127 C146 132.94 146 138.88 146 145 C151.94 145 157.88 145 164 145 C164 147.97 164 150.94 164 154 C166.97 154 169.94 154 173 154 C173 148.06 173 142.12 173 136 C170.03 136 167.06 136 164 136 C164 130.06 164 124.12 164 118 C161.03 118 158.06 118 155 118 C155 115.03 155 112.06 155 109 C160.94 109 166.88 109 173 109 C173 111.97 173 114.94 173 118 C178.94 118 184.88 118 191 118 C191 123.94 191 129.88 191 136 C188.03 136 185.06 136 182 136 C182 144.91 182 153.82 182 163 C179.03 163 176.06 163 173 163 C173 172.24 173 181.48 173 191 C178.94 191 184.88 191 191 191 C191 193.97 191 196.94 191 200 C188.03 200 185.06 200 182 200 C182 202.97 182 205.94 182 209 C179.03 209 176.06 209 173 209 C173 206.03 173 203.06 173 200 C170.03 200 167.06 200 164 200 C164 205.94 164 211.88 164 218 C172.91 218 181.82 218 191 218 C191 226.91 191 235.82 191 245 C188.03 245 185.06 245 182 245 C182 239.06 182 233.12 182 227 C176.06 227 170.12 227 164 227 C164 229.97 164 232.94 164 236 C158.06 236 152.12 236 146 236 C146 238.97 146 241.94 146 245 C151.94 245 157.88 245 164 245 C164 250.94 164 256.88 164 263 C161.03 263 158.06 263 155 263 C155 260.03 155 257.06 155 254 C152.03 254 149.06 254 146 254 C146 256.97 146 259.94 146 263 C140.06 263 134.12 263 128 263 C128 260.03 128 257.06 128 254 C125.03 254 122.06 254 119 254 C119 256.97 119 259.94 119 263 C109.76 263 100.52 263 91 263 C91 260.03 91 257.06 91 254 C97.27 254 103.54 254 110 254 C110 251.03 110 248.06 110 245 C103.73 245 97.46 245 91 245 C91 242.03 91 239.06 91 236 C88.03 236 85.06 236 82 236 C82 230.06 82 224.12 82 218 C84.97 218 87.94 218 91 218 C91 220.97 91 223.94 91 227 C97.27 227 103.54 227 110 227 C110 221.06 110 215.12 110 209 C100.76 209 91.52 209 82 209 C82 206.03 82 203.06 82 200 C79.03 200 76.06 200 73 200 C73 197.03 73 194.06 73 191 C75.97 191 78.94 191 82 191 C82 188.03 82 185.06 82 182 C73.09 182 64.18 182 55 182 C55 178.7 55 175.4 55 172 C57.97 172 60.94 172 64 172 C64 169.03 64 166.06 64 163 C58.06 163 52.12 163 46 163 C46 165.97 46 168.94 46 172 C43.03 172 40.06 172 37 172 C37 169.03 37 166.06 37 163 C34.03 163 31.06 163 28 163 C28 165.97 28 168.94 28 172 C25.03 172 22.06 172 19 172 C19 163.09 19 154.18 19 145 C12.73 145 6.46 145 0 145 C0 150.94 0 156.88 0 163 C3.3 163 6.6 163 10 163 C10 165.97 10 168.94 10 172 C6.7 172 3.4 172 0 172 C0 175.3 0 178.6 0 182 C-2.97 182 -5.94 182 -9 182 C-9 184.97 -9 187.94 -9 191 C-14.94 191 -20.88 191 -27 191 C-27 188.03 -27 185.06 -27 182 C-35.91 182 -44.82 182 -54 182 C-54 178.7 -54 175.4 -54 172 C-51.03 172 -48.06 172 -45 172 C-45 169.03 -45 166.06 -45 163 C-47.97 163 -50.94 163 -54 163 C-54 160.03 -54 157.06 -54 154 C-51.03 154 -48.06 154 -45 154 C-45 151.03 -45 148.06 -45 145 C-50.94 145 -56.88 145 -63 145 C-63 147.97 -63 150.94 -63 154 C-65.97 154 -68.94 154 -72 154 C-72 148.06 -72 142.12 -72 136 C-66.06 136 -60.12 136 -54 136 C-54 127.09 -54 118.18 -54 109 C-51.03 109 -48.06 109 -45 109 C-45 117.91 -45 126.82 -45 136 C-42.03 136 -39.06 136 -36 136 C-36 133.03 -36 130.06 -36 127 C-20.82 127 -5.64 127 10 127 C10 124.03 10 121.06 10 118 C12.97 118 15.94 118 19 118 C19 115.03 19 112.06 19 109 C9.76 109 0.52 109 -9 109 C-9 111.97 -9 114.94 -9 118 C-11.97 118 -14.94 118 -18 118 C-18 115.03 -18 112.06 -18 109 C-20.97 109 -23.94 109 -27 109 C-27 103.06 -27 97.12 -27 91 C-21.06 91 -15.12 91 -9 91 C-9 93.97 -9 96.94 -9 100 C0.24 100 9.48 100 19 100 C19 97.03 19 94.06 19 91 C16.03 91 13.06 91 10 91 C10 88.03 10 85.06 10 82 C21.88 82 33.76 82 46 82 C46 87.94 46 93.88 46 100 C48.97 100 51.94 100 55 100 C55 97.03 55 94.06 55 91 C57.97 91 60.94 91 64 91 C64 93.97 64 96.94 64 100 C69.94 100 75.88 100 82 100 C82 97.03 82 94.06 82 91 C79.03 91 76.06 91 73 91 C73 84.73 73 78.46 73 72 C70.03 72 67.06 72 64 72 C64 75.3 64 78.6 64 82 C61.03 82 58.06 82 55 82 C55 69.79 55 57.58 55 45 C52.03 45 49.06 45 46 45 C46 39.06 46 33.12 46 27 C43.03 27 40.06 27 37 27 C37 24.03 37 21.06 37 18 C31.06 18 25.12 18 19 18 C19 20.97 19 23.94 19 27 C16.03 27 13.06 27 10 27 C10 24.03 10 21.06 10 18 C6.7 18 3.4 18 0 18 C0 12.06 0 6.12 0 0 Z " fill="#000000" transform="translate(91,19)"/>
<path d="M0 0 C6.27 0 12.54 0 19 0 C19 2.97 19 5.94 19 9 C21.97 9 24.94 9 28 9 C28 6.03 28 3.06 28 0 C30.97 0 33.94 0 37 0 C37 2.97 37 5.94 37 9 C39.97 9 42.94 9 46 9 C46 11.97 46 14.94 46 18 C48.97 18 51.94 18 55 18 C55 23.94 55 29.88 55 36 C57.97 36 60.94 36 64 36 C64 33.03 64 30.06 64 27 C66.97 27 69.94 27 73 27 C73 29.97 73 32.94 73 36 C75.97 36 78.94 36 82 36 C82 33.03 82 30.06 82 27 C84.97 27 87.94 27 91 27 C91 24.03 91 21.06 91 18 C85.06 18 79.12 18 73 18 C73 12.06 73 6.12 73 0 C75.97 0 78.94 0 82 0 C82 2.97 82 5.94 82 9 C84.97 9 87.94 9 91 9 C91 6.03 91 3.06 91 0 C100.24 0 109.48 0 119 0 C119 5.94 119 11.88 119 18 C116.03 18 113.06 18 110 18 C110 15.03 110 12.06 110 9 C106.7 9 103.4 9 100 9 C100 14.94 100 20.88 100 27 C106.27 27 112.54 27 119 27 C119 29.97 119 32.94 119 36 C116.03 36 113.06 36 110 36 C110 38.97 110 41.94 110 45 C112.97 45 115.94 45 119 45 C119 50.94 119 56.88 119 63 C116.03 63 113.06 63 110 63 C110 60.03 110 57.06 110 54 C106.7 54 103.4 54 100 54 C100 56.97 100 59.94 100 63 C97.03 63 94.06 63 91 63 C91 65.97 91 68.94 91 72 C93.97 72 96.94 72 100 72 C100 75.3 100 78.6 100 82 C103.3 82 106.6 82 110 82 C110 84.97 110 87.94 110 91 C103.73 91 97.46 91 91 91 C91 93.97 91 96.94 91 100 C93.97 100 96.94 100 100 100 C100 105.94 100 111.88 100 118 C94.06 118 88.12 118 82 118 C82 120.97 82 123.94 82 127 C76.06 127 70.12 127 64 127 C64 124.03 64 121.06 64 118 C58.06 118 52.12 118 46 118 C46 115.03 46 112.06 46 109 C43.03 109 40.06 109 37 109 C37 106.03 37 103.06 37 100 C31.06 100 25.12 100 19 100 C19 97.03 19 94.06 19 91 C16.03 91 13.06 91 10 91 C10 88.03 10 85.06 10 82 C21.88 82 33.76 82 46 82 C46 87.94 46 93.88 46 100 C48.97 100 51.94 100 55 100 C55 97.03 55 94.06 55 91 C57.97 91 60.94 91 64 91 C64 93.97 64 96.94 64 100 C69.94 100 75.88 100 82 100 C82 97.03 82 94.06 82 91 C79.03 91 76.06 91 73 91 C73 84.73 73 78.46 73 72 C70.03 72 67.06 72 64 72 C64 75.3 64 78.6 64 82 C61.03 82 58.06 82 55 82 C55 69.79 55 57.58 55 45 C52.03 45 49.06 45 46 45 C46 39.06 46 33.12 46 27 C43.03 27 40.06 27 37 27 C37 24.03 37 21.06 37 18 C31.06 18 25.12 18 19 18 C19 20.97 19 23.94 19 27 C16.03 27 13.06 27 10 27 C10 24.03 10 21.06 10 18 C6.7 18 3.4 18 0 18 C0 12.06 0 6.12 0 0 Z " fill="#000000" transform="translate(91,19)"/>
<path d="M0 0 C20.79 0 41.58 0 63 0 C63 20.79 63 41.58 63 63 C42.21 63 21.42 63 0 63 C0 42.21 0 21.42 0 0 Z " fill="#FEFFFE" transform="translate(19,219)"/>
<path d="M0 0 C20.79 0 41.58 0 63 0 C63 20.79 63 41.58 63 63 C42.21 63 21.42 63 0 63 C0 42.21 0 21.42 0 0 Z " fill="#FEFEFE" transform="translate(219,19)"/>
<path d="M0 0 C20.79 0 41.58 0 63 0 C63 20.79 63 41.58 63 63 C42.21 63 21.42 63 0 63 C0 42.21 0 21.42 0 0 Z " fill="#FFFEFE" transform="translate(19,19)"/>
<path d="M0 0 C3.3 0 6.6 0 10 0 C10 2.97 10 5.94 10 9 C24.85 9 39.7 9 55 9 C55 14.94 55 20.88 55 27 C60.94 27 66.88 27 73 27 C73 29.97 73 32.94 73 36 C64.09 36 55.18 36 46 36 C46 38.97 46 41.94 46 45 C54.91 45 63.82 45 73 45 C73 47.97 73 50.94 73 54 C67.06 54 61.12 54 55 54 C55 56.97 55 59.94 55 63 C49.06 63 43.12 63 37 63 C37 65.97 37 68.94 37 72 C39.97 72 42.94 72 46 72 C46 74.97 46 77.94 46 81 C40.06 81 34.12 81 28 81 C28 78.03 28 75.06 28 72 C22.06 72 16.12 72 10 72 C10 69.03 10 66.06 10 63 C6.7 63 3.4 63 0 63 C0 57.06 0 51.12 0 45 C3.3 45 6.6 45 10 45 C10 42.03 10 39.06 10 36 C6.7 36 3.4 36 0 36 C0 24.12 0 12.24 0 0 Z " fill="#000000" transform="translate(91,201)"/>
<path d="M0 0 C20.79 0 41.58 0 63 0 C63 20.79 63 41.58 63 63 C42.21 63 21.42 63 0 63 C0 42.21 0 21.42 0 0 Z M9 9 C9 23.85 9 38.7 9 54 C23.85 54 38.7 54 54 54 C54 39.15 54 24.3 54 9 C39.15 9 24.3 9 9 9 Z " fill="#000000" transform="translate(19,219)"/>
<path d="M0 0 C2.97 0 5.94 0 9 0 C9 2.97 9 5.94 9 9 C14.94 9 20.88 9 27 9 C27 11.97 27 14.94 27 18 C32.94 18 38.88 18 45 18 C45 15.03 45 12.06 45 9 C50.94 9 56.88 9 63 9 C63 11.97 63 14.94 63 18 C60.03 18 57.06 18 54 18 C54 20.97 54 23.94 54 27 C56.97 27 59.94 27 63 27 C63 29.97 63 32.94 63 36 C60.03 36 57.06 36 54 36 C54 44.91 54 53.82 54 63 C48.06 63 42.12 63 36 63 C36 57.06 36 51.12 36 45 C30.06 45 24.12 45 18 45 C18 42.03 18 39.06 18 36 C15.03 36 12.06 36 9 36 C9 33.03 9 30.06 9 27 C11.97 27 14.94 27 18 27 C18 24.03 18 21.06 18 18 C12.06 18 6.12 18 0 18 C0 12.06 0 6.12 0 0 Z " fill="#FFFEFE" transform="translate(128,128)"/>
<path d="M0 0 C20.79 0 41.58 0 63 0 C63 20.79 63 41.58 63 63 C42.21 63 21.42 63 0 63 C0 42.21 0 21.42 0 0 Z M9 9 C9 23.85 9 38.7 9 54 C23.85 54 38.7 54 54 54 C54 39.15 54 24.3 54 9 C39.15 9 24.3 9 9 9 Z " fill="#000000" transform="translate(219,19)"/>
<path d="M0 0 C20.79 0 41.58 0 63 0 C63 20.79 63 41.58 63 63 C42.21 63 21.42 63 0 63 C0 42.21 0 21.42 0 0 Z M9 9 C9 23.85 9 38.7 9 54 C23.85 54 38.7 54 54 54 C54 39.15 54 24.3 54 9 C39.15 9 24.3 9 9 9 Z " fill="#000000" transform="translate(19,19)"/>
<path d="M0 0 C11.88 0 23.76 0 36 0 C36 5.94 36 11.88 36 18 C38.97 18 41.94 18 45 18 C45 15.03 45 12.06 45 9 C47.97 9 50.94 9 54 9 C54 11.97 54 14.94 54 18 C59.94 18 65.88 18 72 18 C72 20.97 72 23.94 72 27 C74.97 27 77.94 27 81 27 C81 24.03 81 21.06 81 18 C83.97 18 86.94 18 90 18 C90 23.94 90 29.88 90 36 C84.06 36 78.12 36 72 36 C72 38.97 72 41.94 72 45 C66.06 45 60.12 45 54 45 C54 42.03 54 39.06 54 36 C48.06 36 42.12 36 36 36 C36 33.03 36 30.06 36 27 C33.03 27 30.06 27 27 27 C27 24.03 27 21.06 27 18 C21.06 18 15.12 18 9 18 C9 15.03 9 12.06 9 9 C6.03 9 3.06 9 0 9 C0 6.03 0 3.06 0 0 Z " fill="#000000" transform="translate(101,101)"/>
<path d="M0 0 C2.97 0 5.94 0 9 0 C9 8.91 9 17.82 9 27 C11.97 27 14.94 27 18 27 C18 32.94 18 38.88 18 45 C23.94 45 29.88 45 36 45 C36 47.97 36 50.94 36 54 C33.03 54 30.06 54 27 54 C27 56.97 27 59.94 27 63 C29.97 63 32.94 63 36 63 C36 66.3 36 69.6 36 73 C38.97 73 41.94 73 45 73 C45 75.97 45 78.94 45 82 C39.06 82 33.12 82 27 82 C27 79.03 27 76.06 27 73 C18.09 73 9.18 73 0 73 C0 69.7 0 66.4 0 63 C2.97 63 5.94 63 9 63 C9 60.03 9 57.06 9 54 C6.03 54 3.06 54 0 54 C0 51.03 0 48.06 0 45 C2.97 45 5.94 45 9 45 C9 42.03 9 39.06 9 36 C3.06 36 -2.88 36 -9 36 C-9 38.97 -9 41.94 -9 45 C-11.97 45 -14.94 45 -18 45 C-18 39.06 -18 33.12 -18 27 C-12.06 27 -6.12 27 0 27 C0 18.09 0 9.18 0 0 Z " fill="#000000" transform="translate(37,128)"/>
<path d="M0 0 C2.97 0 5.94 0 9 0 C9 2.97 9 5.94 9 9 C14.94 9 20.88 9 27 9 C27 11.97 27 14.94 27 18 C29.97 18 32.94 18 36 18 C36 24.27 36 30.54 36 37 C30.06 37 24.12 37 18 37 C18 33.7 18 30.4 18 27 C15.03 27 12.06 27 9 27 C9 30.3 9 33.6 9 37 C6.03 37 3.06 37 0 37 C0 33.7 0 30.4 0 27 C-2.97 27 -5.94 27 -9 27 C-9 30.3 -9 33.6 -9 37 C-18.24 37 -27.48 37 -37 37 C-37 33.7 -37 30.4 -37 27 C-34.03 27 -31.06 27 -28 27 C-28 21.06 -28 15.12 -28 9 C-24.7 9 -21.4 9 -18 9 C-18 11.97 -18 14.94 -18 18 C-15.03 18 -12.06 18 -9 18 C-9 15.03 -9 12.06 -9 9 C-6.03 9 -3.06 9 0 9 C0 6.03 0 3.06 0 0 Z " fill="#FEFEFE" transform="translate(219,164)"/>
<path d="M0 0 C8.91 0 17.82 0 27 0 C27 8.91 27 17.82 27 27 C29.97 27 32.94 27 36 27 C36 30.3 36 33.6 36 37 C39.3 37 42.6 37 46 37 C46 39.97 46 42.94 46 46 C39.73 46 33.46 46 27 46 C27 51.94 27 57.88 27 64 C24.03 64 21.06 64 18 64 C18 58.06 18 52.12 18 46 C15.03 46 12.06 46 9 46 C9 36.76 9 27.52 9 18 C6.03 18 3.06 18 0 18 C0 12.06 0 6.12 0 0 Z " fill="#000000" transform="translate(155,64)"/>
<path d="M0 0 C3.3 0 6.6 0 10 0 C10 2.97 10 5.94 10 9 C24.85 9 39.7 9 55 9 C55 14.94 55 20.88 55 27 C60.94 27 66.88 27 73 27 C73 29.97 73 32.94 73 36 C61.12 36 49.24 36 37 36 C37 30.06 37 24.12 37 18 C28.09 18 19.18 18 10 18 C10 23.94 10 29.88 10 36 C6.7 36 3.4 36 0 36 C0 24.12 0 12.24 0 0 Z " fill="#000000" transform="translate(91,201)"/>
<path d="M0 0 C2.97 0 5.94 0 9 0 C9 3.3 9 6.6 9 10 C14.94 10 20.88 10 27 10 C27 15.94 27 21.88 27 28 C24.03 28 21.06 28 18 28 C18 30.97 18 33.94 18 37 C9.09 37 0.18 37 -9 37 C-9 34.03 -9 31.06 -9 28 C-11.97 28 -14.94 28 -18 28 C-18 25.03 -18 22.06 -18 19 C-15.03 19 -12.06 19 -9 19 C-9 16.03 -9 13.06 -9 10 C-6.03 10 -3.06 10 0 10 C0 6.7 0 3.4 0 0 Z " fill="#000000" transform="translate(219,91)"/>
<path d="M0 0 C2.97 0 5.94 0 9 0 C9 2.97 9 5.94 9 9 C11.97 9 14.94 9 18 9 C18 6.03 18 3.06 18 0 C27.24 0 36.48 0 46 0 C46 5.94 46 11.88 46 18 C43.03 18 40.06 18 37 18 C37 15.03 37 12.06 37 9 C33.7 9 30.4 9 27 9 C27 14.94 27 20.88 27 27 C24.03 27 21.06 27 18 27 C18 24.03 18 21.06 18 18 C12.06 18 6.12 18 0 18 C0 12.06 0 6.12 0 0 Z " fill="#000000" transform="translate(164,19)"/>
<path d="M0 0 C8.91 0 17.82 0 27 0 C27 8.91 27 17.82 27 27 C18.09 27 9.18 27 0 27 C0 18.09 0 9.18 0 0 Z " fill="#000000" transform="translate(37,237)"/>
<path d="M0 0 C8.91 0 17.82 0 27 0 C27 8.91 27 17.82 27 27 C18.09 27 9.18 27 0 27 C0 18.09 0 9.18 0 0 Z " fill="#FFFFFE" transform="translate(210,210)"/>
<path d="M0 0 C8.91 0 17.82 0 27 0 C27 8.91 27 17.82 27 27 C18.09 27 9.18 27 0 27 C0 18.09 0 9.18 0 0 Z " fill="#000000" transform="translate(237,37)"/>
<path d="M0 0 C5.94 0 11.88 0 18 0 C18 2.97 18 5.94 18 9 C20.97 9 23.94 9 27 9 C27 14.94 27 20.88 27 27 C24.03 27 21.06 27 18 27 C18 24.03 18 21.06 18 18 C15.03 18 12.06 18 9 18 C9 23.94 9 29.88 9 36 C6.03 36 3.06 36 0 36 C0 30.06 0 24.12 0 18 C-2.97 18 -5.94 18 -9 18 C-9 15.03 -9 12.06 -9 9 C-6.03 9 -3.06 9 0 9 C0 6.03 0 3.06 0 0 Z " fill="#FEFEFE" transform="translate(110,37)"/>
<path d="M0 0 C8.91 0 17.82 0 27 0 C27 8.91 27 17.82 27 27 C18.09 27 9.18 27 0 27 C0 18.09 0 9.18 0 0 Z " fill="#000000" transform="translate(37,37)"/>
<path d="M0 0 C2.97 0 5.94 0 9 0 C9 5.94 9 11.88 9 18 C11.97 18 14.94 18 18 18 C18 23.94 18 29.88 18 36 C8.76 36 -0.48 36 -10 36 C-10 30.06 -10 24.12 -10 18 C-6.7 18 -3.4 18 0 18 C0 12.06 0 6.12 0 0 Z " fill="#000000" transform="translate(101,55)"/>
<path d="M0 0 C2.97 0 5.94 0 9 0 C9 2.97 9 5.94 9 9 C14.94 9 20.88 9 27 9 C27 14.94 27 20.88 27 27 C24.03 27 21.06 27 18 27 C18 24.03 18 21.06 18 18 C15.03 18 12.06 18 9 18 C9 20.97 9 23.94 9 27 C3.06 27 -2.88 27 -9 27 C-9 24.03 -9 21.06 -9 18 C-6.03 18 -3.06 18 0 18 C0 12.06 0 6.12 0 0 Z " fill="#000000" transform="translate(228,255)"/>
<path d="M0 0 C8.91 0 17.82 0 27 0 C27 5.94 27 11.88 27 18 C24.03 18 21.06 18 18 18 C18 20.97 18 23.94 18 27 C15.03 27 12.06 27 9 27 C9 24.03 9 21.06 9 18 C6.03 18 3.06 18 0 18 C0 12.06 0 6.12 0 0 Z " fill="#FFFFFF" transform="translate(155,64)"/>
<path d="M0 0 C6.27 0 12.54 0 19 0 C19 2.97 19 5.94 19 9 C21.97 9 24.94 9 28 9 C28 11.97 28 14.94 28 18 C25.03 18 22.06 18 19 18 C19 20.97 19 23.94 19 27 C15.7 27 12.4 27 9 27 C9 21.06 9 15.12 9 9 C6.03 9 3.06 9 0 9 C0 6.03 0 3.06 0 0 Z " fill="#FFFEFE" transform="translate(182,110)"/>
<path d="M0 0 C5.94 0 11.88 0 18 0 C18 3.3 18 6.6 18 10 C15.03 10 12.06 10 9 10 C9 15.94 9 21.88 9 28 C6.03 28 3.06 28 0 28 C0 25.03 0 22.06 0 19 C-2.97 19 -5.94 19 -9 19 C-9 16.03 -9 13.06 -9 10 C-6.03 10 -3.06 10 0 10 C0 6.7 0 3.4 0 0 Z " fill="#000000" transform="translate(37,91)"/>
<path d="M0 0 C6.27 0 12.54 0 19 0 C19 8.91 19 17.82 19 27 C16.03 27 13.06 27 10 27 C10 24.03 10 21.06 10 18 C6.7 18 3.4 18 0 18 C0 12.06 0 6.12 0 0 Z " fill="#000000" transform="translate(91,19)"/>
<path d="M0 0 C8.91 0 17.82 0 27 0 C27 8.91 27 17.82 27 27 C24.03 27 21.06 27 18 27 C18 21.06 18 15.12 18 9 C12.06 9 6.12 9 0 9 C0 6.03 0 3.06 0 0 Z " fill="#000000" transform="translate(255,237)"/>
<path d="M0 0 C8.91 0 17.82 0 27 0 C27 2.97 27 5.94 27 9 C24.03 9 21.06 9 18 9 C18 11.97 18 14.94 18 18 C12.06 18 6.12 18 0 18 C0 12.06 0 6.12 0 0 Z " fill="#FEFEFF" transform="translate(101,219)"/>
<path d="M0 0 C5.94 0 11.88 0 18 0 C18 8.91 18 17.82 18 27 C15.03 27 12.06 27 9 27 C9 24.03 9 21.06 9 18 C6.03 18 3.06 18 0 18 C0 12.06 0 6.12 0 0 Z " fill="#000000" transform="translate(64,110)"/>
<path d="M0 0 C5.94 0 11.88 0 18 0 C18 2.97 18 5.94 18 9 C15.03 9 12.06 9 9 9 C9 11.97 9 14.94 9 18 C3.06 18 -2.88 18 -9 18 C-9 15.03 -9 12.06 -9 9 C-6.03 9 -3.06 9 0 9 C0 6.03 0 3.06 0 0 Z " fill="#000000" transform="translate(155,264)"/>
<path d="M0 0 C5.94 0 11.88 0 18 0 C18 2.97 18 5.94 18 9 C15.03 9 12.06 9 9 9 C9 14.94 9 20.88 9 27 C6.03 27 3.06 27 0 27 C0 18.09 0 9.18 0 0 Z " fill="#FFFFFF" transform="translate(219,246)"/>
<path d="M0 0 C2.97 0 5.94 0 9 0 C9 2.97 9 5.94 9 9 C11.97 9 14.94 9 18 9 C18 14.94 18 20.88 18 27 C15.03 27 12.06 27 9 27 C9 24.03 9 21.06 9 18 C6.03 18 3.06 18 0 18 C0 12.06 0 6.12 0 0 Z " fill="#000000" transform="translate(119,55)"/>
<path d="M0 0 C8.91 0 17.82 0 27 0 C27 3.3 27 6.6 27 10 C18.09 10 9.18 10 0 10 C0 6.7 0 3.4 0 0 Z " fill="#000000" transform="translate(64,91)"/>
<path d="M0 0 C5.94 0 11.88 0 18 0 C18 6.27 18 12.54 18 19 C15.03 19 12.06 19 9 19 C9 16.03 9 13.06 9 10 C6.03 10 3.06 10 0 10 C0 6.7 0 3.4 0 0 Z " fill="#000000" transform="translate(264,91)"/>
<path d="M0 0 C9.24 0 18.48 0 28 0 C28 2.97 28 5.94 28 9 C18.76 9 9.52 9 0 9 C0 6.03 0 3.06 0 0 Z " fill="#000000" transform="translate(82,119)"/>
<path d="M0 0 C5.94 0 11.88 0 18 0 C18 5.94 18 11.88 18 18 C15.03 18 12.06 18 9 18 C9 15.03 9 12.06 9 9 C6.03 9 3.06 9 0 9 C0 6.03 0 3.06 0 0 Z " fill="#FEFFFF" transform="translate(255,246)"/>
<path d="M0 0 C5.94 0 11.88 0 18 0 C18 5.94 18 11.88 18 18 C15.03 18 12.06 18 9 18 C9 15.03 9 12.06 9 9 C6.03 9 3.06 9 0 9 C0 6.03 0 3.06 0 0 Z " fill="#FFFEFE" transform="translate(110,246)"/>
<path d="M0 0 C2.97 0 5.94 0 9 0 C9 2.97 9 5.94 9 9 C11.97 9 14.94 9 18 9 C18 11.97 18 14.94 18 18 C12.06 18 6.12 18 0 18 C0 12.06 0 6.12 0 0 Z " fill="#FFFFFF" transform="translate(55,155)"/>
<path d="M0 0 C2.97 0 5.94 0 9 0 C9 8.91 9 17.82 9 27 C6.03 27 3.06 27 0 27 C0 18.09 0 9.18 0 0 Z " fill="#000000" transform="translate(101,55)"/>
<path d="M0 0 C2.97 0 5.94 0 9 0 C9 5.94 9 11.88 9 18 C6.03 18 3.06 18 0 18 C0 12.06 0 6.12 0 0 Z " fill="#000000" transform="translate(264,264)"/>
<path d="M0 0 C5.94 0 11.88 0 18 0 C18 2.97 18 5.94 18 9 C12.06 9 6.12 9 0 9 C0 6.03 0 3.06 0 0 Z " fill="#FFFFFF" transform="translate(237,255)"/>
<path d="M0 0 C5.94 0 11.88 0 18 0 C18 2.97 18 5.94 18 9 C12.06 9 6.12 9 0 9 C0 6.03 0 3.06 0 0 Z " fill="#000000" transform="translate(155,155)"/>
<path d="M0 0 C5.94 0 11.88 0 18 0 C18 2.97 18 5.94 18 9 C12.06 9 6.12 9 0 9 C0 6.03 0 3.06 0 0 Z " fill="#FFFFFE" transform="translate(110,119)"/>
<path d="M0 0 C5.94 0 11.88 0 18 0 C18 2.97 18 5.94 18 9 C12.06 9 6.12 9 0 9 C0 6.03 0 3.06 0 0 Z " fill="#000000" transform="translate(255,110)"/>
<path d="M0 0 C5.94 0 11.88 0 18 0 C18 2.97 18 5.94 18 9 C12.06 9 6.12 9 0 9 C0 6.03 0 3.06 0 0 Z " fill="#FFFFFF" transform="translate(219,110)"/>
<path d="M0 0 C3.3 0 6.6 0 10 0 C10 2.97 10 5.94 10 9 C6.7 9 3.4 9 0 9 C0 6.03 0 3.06 0 0 Z " fill="#000000" transform="translate(91,273)"/>
<path d="M0 0 C2.97 0 5.94 0 9 0 C9 3.3 9 6.6 9 10 C6.03 10 3.06 10 0 10 C0 6.7 0 3.4 0 0 Z " fill="#FFFFFF" transform="translate(73,191)"/>
<path d="M0 0 C2.97 0 5.94 0 9 0 C9 3.3 9 6.6 9 10 C6.03 10 3.06 10 0 10 C0 6.7 0 3.4 0 0 Z " fill="#000000" transform="translate(246,91)"/>
<path d="M0 0 C2.97 0 5.94 0 9 0 C9 3.3 9 6.6 9 10 C6.03 10 3.06 10 0 10 C0 6.7 0 3.4 0 0 Z " fill="#000000" transform="translate(19,91)"/>
<path d="M0 0 C3.3 0 6.6 0 10 0 C10 2.97 10 5.94 10 9 C6.7 9 3.4 9 0 9 C0 6.03 0 3.06 0 0 Z " fill="#000000" transform="translate(91,46)"/>
<path d="M0 0 C2.97 0 5.94 0 9 0 C9 2.97 9 5.94 9 9 C6.03 9 3.06 9 0 9 C0 6.03 0 3.06 0 0 Z " fill="#000000" transform="translate(255,255)"/>
<path d="M0 0 C2.97 0 5.94 0 9 0 C9 2.97 9 5.94 9 9 C6.03 9 3.06 9 0 9 C0 6.03 0 3.06 0 0 Z " fill="#FFFFFF" transform="translate(201,255)"/>
<path d="M0 0 C2.97 0 5.94 0 9 0 C9 2.97 9 5.94 9 9 C6.03 9 3.06 9 0 9 C0 6.03 0 3.06 0 0 Z " fill="#FFFFFF" transform="translate(246,237)"/>
<path d="M0 0 C2.97 0 5.94 0 9 0 C9 2.97 9 5.94 9 9 C6.03 9 3.06 9 0 9 C0 6.03 0 3.06 0 0 Z " fill="#FFFEFF" transform="translate(128,228)"/>
<path d="M0 0 C2.97 0 5.94 0 9 0 C9 2.97 9 5.94 9 9 C6.03 9 3.06 9 0 9 C0 6.03 0 3.06 0 0 Z " fill="#000000" transform="translate(219,219)"/>
<path d="M0 0 C2.97 0 5.94 0 9 0 C9 2.97 9 5.94 9 9 C6.03 9 3.06 9 0 9 C0 6.03 0 3.06 0 0 Z " fill="#000000" transform="translate(28,201)"/>
<path d="M0 0 C2.97 0 5.94 0 9 0 C9 2.97 9 5.94 9 9 C6.03 9 3.06 9 0 9 C0 6.03 0 3.06 0 0 Z " fill="#FFFFFE" transform="translate(64,182)"/>
<path d="M0 0 C2.97 0 5.94 0 9 0 C9 2.97 9 5.94 9 9 C6.03 9 3.06 9 0 9 C0 6.03 0 3.06 0 0 Z " fill="#000000" transform="translate(19,182)"/>
<path d="M0 0 C2.97 0 5.94 0 9 0 C9 2.97 9 5.94 9 9 C6.03 9 3.06 9 0 9 C0 6.03 0 3.06 0 0 Z " fill="#FFFFFF" transform="translate(73,173)"/>
<path d="M0 0 C2.97 0 5.94 0 9 0 C9 2.97 9 5.94 9 9 C6.03 9 3.06 9 0 9 C0 6.03 0 3.06 0 0 Z " fill="#FFFFFF" transform="translate(128,164)"/>
<path d="M0 0 C2.97 0 5.94 0 9 0 C9 2.97 9 5.94 9 9 C6.03 9 3.06 9 0 9 C0 6.03 0 3.06 0 0 Z " fill="#FEFFFF" transform="translate(119,155)"/>
<path d="M0 0 C2.97 0 5.94 0 9 0 C9 2.97 9 5.94 9 9 C6.03 9 3.06 9 0 9 C0 6.03 0 3.06 0 0 Z " fill="#FFFFFF" transform="translate(73,155)"/>
<path d="M0 0 C2.97 0 5.94 0 9 0 C9 2.97 9 5.94 9 9 C6.03 9 3.06 9 0 9 C0 6.03 0 3.06 0 0 Z " fill="#FFFFFF" transform="translate(110,146)"/>
<path d="M0 0 C2.97 0 5.94 0 9 0 C9 2.97 9 5.94 9 9 C6.03 9 3.06 9 0 9 C0 6.03 0 3.06 0 0 Z " fill="#000000" transform="translate(219,137)"/>
<path d="M0 0 C2.97 0 5.94 0 9 0 C9 2.97 9 5.94 9 9 C6.03 9 3.06 9 0 9 C0 6.03 0 3.06 0 0 Z " fill="#000000" transform="translate(201,128)"/>
<path d="M0 0 C2.97 0 5.94 0 9 0 C9 2.97 9 5.94 9 9 C6.03 9 3.06 9 0 9 C0 6.03 0 3.06 0 0 Z " fill="#000000" transform="translate(73,128)"/>
<path d="M0 0 C2.97 0 5.94 0 9 0 C9 2.97 9 5.94 9 9 C6.03 9 3.06 9 0 9 C0 6.03 0 3.06 0 0 Z " fill="#000000" transform="translate(19,128)"/>
<path d="M0 0 C2.97 0 5.94 0 9 0 C9 2.97 9 5.94 9 9 C6.03 9 3.06 9 0 9 C0 6.03 0 3.06 0 0 Z " fill="#000000" transform="translate(273,119)"/>
<path d="M0 0 C2.97 0 5.94 0 9 0 C9 2.97 9 5.94 9 9 C6.03 9 3.06 9 0 9 C0 6.03 0 3.06 0 0 Z " fill="#FFFFFF" transform="translate(173,119)"/>
<path d="M0 0 C2.97 0 5.94 0 9 0 C9 2.97 9 5.94 9 9 C6.03 9 3.06 9 0 9 C0 6.03 0 3.06 0 0 Z " fill="#FFFFFE" transform="translate(73,119)"/>
<path d="M0 0 C2.97 0 5.94 0 9 0 C9 2.97 9 5.94 9 9 C6.03 9 3.06 9 0 9 C0 6.03 0 3.06 0 0 Z " fill="#000000" transform="translate(173,110)"/>
<path d="M0 0 C2.97 0 5.94 0 9 0 C9 2.97 9 5.94 9 9 C6.03 9 3.06 9 0 9 C0 6.03 0 3.06 0 0 Z " fill="#FFFFFF" transform="translate(173,101)"/>
<path d="M0 0 C2.97 0 5.94 0 9 0 C9 2.97 9 5.94 9 9 C6.03 9 3.06 9 0 9 C0 6.03 0 3.06 0 0 Z " fill="#FFFFFF" transform="translate(164,82)"/>
<path d="M0 0 C2.97 0 5.94 0 9 0 C9 2.97 9 5.94 9 9 C6.03 9 3.06 9 0 9 C0 6.03 0 3.06 0 0 Z " fill="#000000" transform="translate(164,73)"/>
<path d="M0 0 C2.97 0 5.94 0 9 0 C9 2.97 9 5.94 9 9 C6.03 9 3.06 9 0 9 C0 6.03 0 3.06 0 0 Z " fill="#FFFFFF" transform="translate(101,73)"/>
<path d="M0 0 C2.97 0 5.94 0 9 0 C9 2.97 9 5.94 9 9 C6.03 9 3.06 9 0 9 C0 6.03 0 3.06 0 0 Z " fill="#FFFEFF" transform="translate(182,46)"/>
<path d="M0 0 C2.97 0 5.94 0 9 0 C9 2.97 9 5.94 9 9 C6.03 9 3.06 9 0 9 C0 6.03 0 3.06 0 0 Z " fill="#000000" transform="translate(101,37)"/>
<path d="M0 0 C2.97 0 5.94 0 9 0 C9 2.97 9 5.94 9 9 C6.03 9 3.06 9 0 9 C0 6.03 0 3.06 0 0 Z " fill="#FFFFFF" transform="translate(101,28)"/>
<path d="M0 0 C2.97 0 5.94 0 9 0 C9 2.97 9 5.94 9 9 C6.03 9 3.06 9 0 9 C0 6.03 0 3.06 0 0 Z " fill="#000000" transform="translate(137,19)"/>
</svg>
